<svg width="16" height="16" viewBox="0 0 16 16" fill="none" xmlns="http://www.w3.org/2000/svg">
<path d="M13.6467 1.33335H2.35334C2.22639 1.33158 2.10034 1.35484 1.98238 1.4018C1.86442 1.44876 1.75687 1.51849 1.66587 1.60702C1.57486 1.69555 1.50219 1.80113 1.452 1.91775C1.40181 2.03437 1.37508 2.15973 1.37334 2.28668V13.7133C1.37508 13.8403 1.40181 13.9657 1.452 14.0823C1.50219 14.1989 1.57486 14.3045 1.66587 14.393C1.75687 14.4815 1.86442 14.5513 1.98238 14.5982C2.10034 14.6452 2.22639 14.6684 2.35334 14.6667H13.6467C13.7736 14.6684 13.8997 14.6452 14.0176 14.5982C14.1356 14.5513 14.2431 14.4815 14.3341 14.393C14.4251 14.3045 14.4978 14.1989 14.548 14.0823C14.5982 13.9657 14.6249 13.8403 14.6267 13.7133V2.28668C14.6249 2.15973 14.5982 2.03437 14.548 1.91775C14.4978 1.80113 14.4251 1.69555 14.3341 1.60702C14.2431 1.51849 14.1356 1.44876 14.0176 1.4018C13.8997 1.35484 13.7736 1.33158 13.6467 1.33335V1.33335ZM5.39334 12.4933H3.39334V6.49334H5.39334V12.4933ZM4.39334 5.65334C4.11751 5.65334 3.85298 5.54377 3.65795 5.34874C3.46291 5.1537 3.35334 4.88917 3.35334 4.61334C3.35334 4.33752 3.46291 4.07299 3.65795 3.87795C3.85298 3.68292 4.11751 3.57335 4.39334 3.57335C4.5398 3.55673 4.68812 3.57125 4.82859 3.61593C4.96905 3.66062 5.0985 3.73447 5.20844 3.83265C5.31839 3.93083 5.40635 4.05113 5.46658 4.18567C5.52681 4.3202 5.55795 4.46594 5.55795 4.61334C5.55795 4.76075 5.52681 4.90649 5.46658 5.04102C5.40635 5.17556 5.31839 5.29586 5.20844 5.39404C5.0985 5.49222 4.96905 5.56607 4.82859 5.61076C4.68812 5.65544 4.5398 5.66995 4.39334 5.65334V5.65334ZM12.6067 12.4933H10.6067V9.27334C10.6067 8.46668 10.32 7.94001 9.59334 7.94001C9.36845 7.94166 9.14946 8.0122 8.96589 8.14213C8.78233 8.27205 8.64299 8.45513 8.56667 8.66668C8.5145 8.82337 8.49189 8.98839 8.5 9.15334V12.4867H6.5C6.5 12.4867 6.5 7.03334 6.5 6.48668H8.5V7.33335C8.68169 7.01808 8.94594 6.75836 9.2643 6.58215C9.58265 6.40593 9.94305 6.31991 10.3067 6.33334C11.64 6.33334 12.6067 7.19335 12.6067 9.04001V12.4933Z" fill="white"/>
</svg>
