<svg width="32" height="32" viewBox="0 0 32 32" fill="none" xmlns="http://www.w3.org/2000/svg">
<path fill-rule="evenodd" clip-rule="evenodd" d="M4.80005 7.99999C4.80005 7.11634 5.51639 6.39999 6.40005 6.39999H25.6C26.4837 6.39999 27.2001 7.11634 27.2001 7.99999C27.2001 8.88365 26.4837 9.59999 25.6 9.59999H6.40005C5.51639 9.59999 4.80005 8.88365 4.80005 7.99999Z" fill="white"/>
<path fill-rule="evenodd" clip-rule="evenodd" d="M4.80005 16C4.80005 15.1163 5.51639 14.4 6.40005 14.4H25.6C26.4837 14.4 27.2001 15.1163 27.2001 16C27.2001 16.8836 26.4837 17.6 25.6 17.6H6.40005C5.51639 17.6 4.80005 16.8836 4.80005 16Z" fill="white"/>
<path fill-rule="evenodd" clip-rule="evenodd" d="M14.4 24C14.4 23.1163 15.1164 22.4 16 22.4H25.6C26.4837 22.4 27.2001 23.1163 27.2001 24C27.2001 24.8836 26.4837 25.6 25.6 25.6H16C15.1164 25.6 14.4 24.8836 14.4 24Z" fill="white"/>
</svg>
