  <svg
    width="203"
    height="32"
    viewBox="0 0 203 32"
    fill="none"
    xmlns="http://www.w3.org/2000/svg"
  >
    <g clip-path="url(#clip0)">
      <path
        d="M70.465 19.4086L63.8682 0.582275H57.6367V25.2064H62.2019V6.74539L68.5653 25.2064H72.4329L78.7963 6.74539V25.2064H83.3615V0.582275H77.1631L70.465 19.4086Z"
        fill="white"
      />
      <path d="M89.925 6.74536H85.4941V25.2064H89.925V6.74536Z" fill="white" />
      <path
        d="M106.52 8.4448C105.186 7.01185 103.188 6.14453 101.255 6.14453C99.3223 6.14453 97.3238 6.9105 96.2231 8.4448H96.1571V6.74552H92.0586V25.2066H96.4918V16.8422C96.4918 15.3762 96.4258 13.3776 97.2248 12.1097C97.8234 11.1104 99.1244 10.4764 100.324 10.4764C101.458 10.4764 102.624 11.042 103.256 12.0083C104.022 13.241 104.022 15.0746 104.022 16.5075V25.2042H108.455V15.6426C108.455 13.2763 108.422 10.9784 106.989 8.97744C106.855 8.77947 106.687 8.61213 106.52 8.4448Z"
        fill="white"
      />
      <path
        d="M124.916 8.645C123.516 7.01171 121.35 6.14675 119.217 6.14675C116.684 6.14675 114.086 7.41237 112.42 9.27898C110.754 11.1456 109.922 13.5778 109.922 16.0431C109.922 18.5083 110.855 20.9076 112.42 22.7082C114.053 24.5748 116.387 25.8074 119.085 25.8074C121.484 25.8074 123.917 24.7422 125.218 22.7082H125.284V25.2064H129.349V0.582275H124.918V8.645H124.916ZM119.75 21.4756C116.651 21.4756 114.35 18.909 114.35 15.8451C114.35 13.0122 116.849 10.481 119.682 10.481C122.715 10.481 125.213 12.8802 125.213 15.9465C125.215 18.975 122.816 21.4756 119.75 21.4756Z"
        fill="white"
      />
      <path
        d="M144.181 12.1355V14.7845H152.807C152.414 19.616 148.619 23.1961 143.752 23.1961C138.134 23.1961 133.875 18.6874 133.875 12.8519C133.875 7.08948 138.134 2.65157 143.609 2.65157C147.224 2.65157 150.302 4.40505 151.627 7.08948L153.988 5.90871C152.52 2.40174 148.334 0.0378418 143.609 0.0378418C136.559 0.0378418 131.082 5.62117 131.082 12.8519C131.082 20.1534 136.522 25.8074 143.609 25.8074C150.337 25.8074 155.492 20.7261 155.492 13.8536C155.492 13.3162 155.456 12.5998 155.383 12.1355H144.181Z"
        fill="white"
      />
      <path
        d="M193.982 6.39185C191.43 6.39185 189.019 7.70224 188.027 10.1133C187.034 7.63154 185.012 6.39185 182.106 6.39185C179.98 6.39185 177.675 7.31337 176.469 9.7244V6.74537H173.881V25.2064H176.469V14.1199C176.469 10.2217 179.056 8.83824 181.326 8.83824C184.338 8.83824 186.148 10.8227 186.148 14.1199V25.2064H188.736V14.1199C188.736 10.2924 191.253 8.83824 193.593 8.83824C196.605 8.83824 198.415 10.8227 198.415 14.1199V25.2064H201.003V13.658C201.001 9.12106 198.236 6.39185 193.982 6.39185Z"
        fill="white"
      />
      <path
        d="M163.743 21.8739L157.606 6.74536H154.785L162.431 24.8882L161.316 27.4501C160.656 28.9915 159.876 29.2955 159.093 29.2955H157.175V31.7301H159.221C161.49 31.7301 162.803 30.3396 163.765 28.0323L172.692 6.74536H169.914L163.743 21.8739Z"
        fill="white"
      />
      <path
        d="M87.6908 0C86.1942 0 84.9805 1.21377 84.9805 2.71036C84.9805 4.20694 86.1942 5.42071 87.6908 5.42071C89.1874 5.42071 90.4012 4.20694 90.4012 2.71036C90.4012 1.21377 89.1874 0 87.6908 0Z"
        fill="white"
      />
      <path
        d="M12.3121 0.582275C5.51263 0.582275 0 6.0949 0 12.8944C0 19.6938 5.51263 25.2064 12.3121 25.2064H42.1236C48.9231 25.2064 54.4357 19.6938 54.4357 12.8944C54.4357 6.0949 48.9231 0.582275 42.1236 0.582275H12.3121Z"
        fill="url(#paint0_linear)"
      />
      <path
        d="M42.1265 25.2064C48.9263 25.2064 54.4386 19.6941 54.4386 12.8944C54.4386 6.09458 48.9263 0.582275 42.1265 0.582275C35.3268 0.582275 29.8145 6.09458 29.8145 12.8944C29.8145 19.6941 35.3268 25.2064 42.1265 25.2064Z"
        fill="white"
      />
      <path
        opacity="0.08"
        d="M12.3121 25.2064C19.1119 25.2064 24.6242 19.6941 24.6242 12.8944C24.6242 6.09458 19.1119 0.582275 12.3121 0.582275C5.51231 0.582275 0 6.09458 0 12.8944C0 19.6941 5.51231 25.2064 12.3121 25.2064Z"
        fill="#00E200"
      />
    </g>
    <defs>
      <linearGradient
        id="paint0_linear"
        x1="0"
        y1="12.8942"
        x2="54.4378"
        y2="12.8942"
        gradientUnits="userSpaceOnUse"
      >
        <stop stop-color="#00E200" />
        <stop offset="0.0447" stop-color="#00CC00" />
        <stop offset="0.1614" stop-color="#009600" />
        <stop offset="0.2795" stop-color="#006800" />
        <stop offset="0.3968" stop-color="#004300" />
        <stop offset="0.513" stop-color="#002600" />
        <stop offset="0.6279" stop-color="#001100" />
        <stop offset="0.741" stop-color="#000400" />
        <stop offset="0.85" />
      </linearGradient>
      <clipPath id="clip0">
        <rect width="201" height="31.73" fill="white" />
      </clipPath>
    </defs>
  </svg>